<?xml version="1.0" encoding="iso-8859-1"?>
<!-- Generator: Adobe Illustrator 19.0.0, SVG Export Plug-In . SVG Version: 6.00 Build 0)  -->
<svg version="1.1" id="Capa_1" xmlns="http://www.w3.org/2000/svg" xmlns:xlink="http://www.w3.org/1999/xlink" x="0px" y="0px"
	 viewBox="0 0 460 460" style="enable-background:new 0 0 460 460;" xml:space="preserve">
<g id="XMLID_1390_">
	<rect id="XMLID_1391_" x="210" y="340" style="fill:#D9CCBC;" width="40" height="40"/>
	<path id="XMLID_1392_" style="fill:#D9CCBC;" d="M247.323,278.328c-0.663,0.129-1.329,0.252-1.997,0.367
		c-0.18,0.031-0.36,0.06-0.541,0.09c-0.605,0.1-1.211,0.195-1.82,0.282c-0.223,0.032-0.445,0.063-0.668,0.094
		c-0.568,0.078-1.137,0.15-1.708,0.217c-0.253,0.03-0.506,0.059-0.76,0.087c-0.545,0.059-1.093,0.112-1.641,0.162
		c-0.273,0.025-0.545,0.05-0.818,0.073c-0.539,0.044-1.08,0.08-1.622,0.114c-0.278,0.018-0.556,0.038-0.835,0.053
		c-0.569,0.031-1.141,0.052-1.713,0.072c-0.248,0.009-0.494,0.022-0.742,0.028C231.642,279.987,230.822,280,230,280
		s-1.642-0.013-2.459-0.035c-0.248-0.007-0.495-0.019-0.742-0.028c-0.572-0.02-1.143-0.042-1.713-0.072
		c-0.279-0.015-0.556-0.035-0.835-0.053c-0.542-0.034-1.083-0.07-1.622-0.114c-0.273-0.022-0.546-0.048-0.818-0.073
		c-0.549-0.049-1.096-0.102-1.642-0.162c-0.253-0.028-0.506-0.057-0.759-0.087c-0.571-0.067-1.141-0.139-1.709-0.217
		c-0.223-0.031-0.446-0.061-0.668-0.094c-0.609-0.088-1.215-0.182-1.82-0.282c-0.18-0.03-0.361-0.059-0.541-0.09
		c-0.668-0.115-1.334-0.238-1.997-0.367c-0.115-0.023-0.232-0.044-0.347-0.066c-0.78-0.155-1.557-0.32-2.329-0.495V300h40v-22.234
		c-0.773,0.175-1.549,0.34-2.329,0.495C247.555,278.284,247.439,278.305,247.323,278.328z"/>
	<rect id="XMLID_1393_" x="210" y="420" style="fill:#D9CCBC;" width="40" height="40"/>
	<rect id="XMLID_1394_" x="210" y="380" style="fill:#B39A7C;" width="40" height="40"/>
	<rect id="XMLID_1395_" x="210" y="300" style="fill:#B39A7C;" width="40" height="40"/>
	<path id="XMLID_1398_" style="fill:#FFDE55;" d="M320,105c0-30.749-21.358-56.493-50.044-63.251C269.981,41.169,270,40.587,270,40
		c0-22.091-17.909-40-40-40v280c0.822,0,1.642-0.013,2.459-0.035c0.248-0.007,0.495-0.02,0.742-0.028
		c0.572-0.02,1.143-0.042,1.713-0.072c0.279-0.015,0.556-0.035,0.835-0.053c0.542-0.034,1.083-0.07,1.622-0.114
		c0.273-0.022,0.546-0.048,0.818-0.073c0.548-0.049,1.096-0.102,1.641-0.162c0.254-0.028,0.507-0.057,0.76-0.087
		c0.571-0.067,1.141-0.139,1.708-0.217c0.223-0.03,0.446-0.061,0.668-0.094c0.609-0.088,1.215-0.182,1.82-0.282
		c0.18-0.03,0.361-0.059,0.541-0.09c0.668-0.115,1.334-0.238,1.997-0.367c0.115-0.023,0.232-0.043,0.347-0.066
		c0.78-0.155,1.557-0.32,2.329-0.495c40.079-9.095,70-44.935,70-87.766c0-16.922-4.674-32.752-12.796-46.274
		C315.241,132.909,320,119.511,320,105z"/>
	<path id="XMLID_1401_" style="fill:#FFEB99;" d="M212.677,278.328c0.663,0.129,1.329,0.252,1.997,0.367
		c0.18,0.031,0.36,0.06,0.541,0.09c0.605,0.1,1.211,0.195,1.82,0.282c0.223,0.032,0.445,0.063,0.668,0.094
		c0.568,0.078,1.138,0.15,1.709,0.217c0.253,0.03,0.505,0.059,0.759,0.087c0.546,0.059,1.093,0.112,1.642,0.162
		c0.273,0.025,0.545,0.05,0.818,0.073c0.539,0.044,1.08,0.08,1.622,0.114c0.278,0.018,0.556,0.038,0.835,0.053
		c0.569,0.031,1.141,0.052,1.713,0.072c0.248,0.009,0.494,0.022,0.742,0.028c0.817,0.022,1.636,0.035,2.459,0.035V0
		c-22.091,0-40,17.909-40,40c0,0.587,0.019,1.169,0.044,1.749C161.359,48.507,140,74.251,140,105
		c0,14.511,4.759,27.909,12.796,38.726C144.674,157.248,140,173.078,140,190c0,42.831,29.921,78.671,70,87.766
		c0.773,0.175,1.549,0.34,2.329,0.495C212.445,278.284,212.561,278.305,212.677,278.328z"/>
</g>
<g>
</g>
<g>
</g>
<g>
</g>
<g>
</g>
<g>
</g>
<g>
</g>
<g>
</g>
<g>
</g>
<g>
</g>
<g>
</g>
<g>
</g>
<g>
</g>
<g>
</g>
<g>
</g>
<g>
</g>
</svg>
