<?xml version="1.0" encoding="iso-8859-1"?>
<!-- Generator: Adobe Illustrator 19.0.0, SVG Export Plug-In . SVG Version: 6.00 Build 0)  -->
<svg version="1.1" id="Capa_1" xmlns="http://www.w3.org/2000/svg" xmlns:xlink="http://www.w3.org/1999/xlink" x="0px" y="0px"
	 viewBox="0 0 460 460" style="enable-background:new 0 0 460 460;" xml:space="preserve">
<g id="XMLID_225_">
	<rect id="XMLID_226_" x="190" y="329.565" style="fill:#A78966;" width="40" height="130.435"/>
	<rect id="XMLID_227_" x="150" y="329.565" style="fill:#B39A7C;" width="40" height="130.435"/>
	<rect id="XMLID_228_" x="230" y="329.565" style="fill:#B39A7C;" width="40" height="130.435"/>
	<rect id="XMLID_229_" x="270" y="329.565" style="fill:#A78966;" width="40" height="130.435"/>
	<path id="XMLID_232_" style="fill:#317F46;" d="M380.483,105.528C358.2,43.98,299.241,0,230,0v329.565h115.217
		c63.391,0,114.783-51.392,114.783-114.783C460,163.696,426.619,120.41,380.483,105.528z"/>
	<path id="XMLID_236_" style="fill:#3FA45A;" d="M230,329.565V0C160.759,0,101.8,43.98,79.517,105.528
		C33.381,120.41,0,163.696,0,214.783c0,63.391,51.391,114.783,114.783,114.783H230z"/>
</g>
<g>
</g>
<g>
</g>
<g>
</g>
<g>
</g>
<g>
</g>
<g>
</g>
<g>
</g>
<g>
</g>
<g>
</g>
<g>
</g>
<g>
</g>
<g>
</g>
<g>
</g>
<g>
</g>
<g>
</g>
</svg>
