<?xml version="1.0" encoding="iso-8859-1"?>
<!-- Generator: Adobe Illustrator 19.0.0, SVG Export Plug-In . SVG Version: 6.00 Build 0)  -->
<svg version="1.1" id="Capa_1" xmlns="http://www.w3.org/2000/svg" xmlns:xlink="http://www.w3.org/1999/xlink" x="0px" y="0px"
	 viewBox="0 0 460 460" style="enable-background:new 0 0 460 460;" xml:space="preserve">
<g id="XMLID_1211_">
	<path id="XMLID_1212_" style="fill:#B39A7C;" d="M210,354.639V460h40V354.639c-5.885,3.405-12.712,5.361-20,5.361
		S215.885,358.044,210,354.639z"/>
	<path id="XMLID_1220_" style="fill:#317F46;" d="M410,180c0-10.342-3.926-19.767-10.367-26.867
		c3.932-8.743,4.753-18.92,1.557-28.756c-3.196-9.836-9.842-17.586-18.162-22.349c1.038-9.531-1.326-19.463-7.405-27.83
		s-14.794-13.684-24.179-15.642c-1.958-9.385-7.276-18.1-15.643-24.179c-8.367-6.079-18.299-8.443-27.83-7.405
		c-4.762-8.32-12.513-14.966-22.349-18.162s-20.012-2.375-28.756,1.557C249.767,3.926,240.342,0,230,0v360
		c7.288,0,14.115-1.956,20-5.361c2.466-1.427,4.77-3.103,6.867-5.006c8.743,3.932,18.92,4.753,28.756,1.557
		c9.836-3.196,17.586-9.842,22.349-18.162c9.531,1.038,19.463-1.326,27.83-7.405s13.684-14.794,15.643-24.179
		c9.385-1.958,18.1-7.276,24.179-15.642c6.079-8.367,8.443-18.299,7.405-27.83c8.321-4.762,14.966-12.513,18.162-22.349
		c3.196-9.836,2.375-20.013-1.557-28.756C406.074,199.767,410,190.342,410,180z M290,290c-11.046,0-20-16.288-20-30
		c0-13.712,8.954-30,20-30s20,16.288,20,30C310,273.712,301.046,290,290,290z M290,150c-11.046,0-20-16.288-20-30
		c0-13.712,8.954-30,20-30s20,16.288,20,30C310,133.712,301.046,150,290,150z M340,209.993c-11.046,0-20-16.288-20-30
		s8.954-30,20-30s20,16.288,20,30S351.046,209.993,340,209.993z"/>
	<path id="XMLID_1232_" style="fill:#3FA45A;" d="M230,0c-10.342,0-19.767,3.926-26.867,10.367
		c-8.743-3.932-18.92-4.753-28.756-1.557s-17.586,9.842-22.349,18.162c-9.531-1.038-19.463,1.326-27.83,7.405
		c-8.367,6.079-13.684,14.795-15.642,24.179c-9.385,1.958-18.1,7.276-24.179,15.642s-8.443,18.299-7.405,27.83
		c-8.32,4.762-14.966,12.513-18.162,22.349c-3.196,9.836-2.375,20.012,1.557,28.756C53.926,160.233,50,169.658,50,180
		c0,10.342,3.926,19.767,10.367,26.867c-3.932,8.743-4.753,18.92-1.557,28.756c3.196,9.836,9.842,17.586,18.162,22.349
		c-1.038,9.531,1.326,19.463,7.405,27.83c6.079,8.367,14.795,13.684,24.179,15.642c1.958,9.385,7.276,18.1,15.642,24.179
		s18.299,8.443,27.83,7.405c4.762,8.32,12.513,14.966,22.349,18.162c9.836,3.196,20.012,2.375,28.756-1.557
		c2.097,1.902,4.401,3.578,6.867,5.006c5.885,3.405,12.712,5.361,20,5.361V0z M120,209.993c-11.003,0-20-16.288-20-30
		s8.997-30,20-30s20,16.288,20,30S131.003,209.993,120,209.993z M150,100c0-13.712,8.954-30,20-30s20,16.288,20,30
		c0,13.712-8.954,30-20,30S150,113.712,150,100z M190,270c-11.046,0-20-16.288-20-30c0-13.712,8.954-30,20-30s20,16.288,20,30
		C210,253.712,201.046,270,190,270z"/>
	<path id="XMLID_1239_" style="fill:#FFDE55;" d="M290,230v60c11.046,0,20-16.288,20-30C310,246.288,301.046,230,290,230z"/>
	<path id="XMLID_1242_" style="fill:#FFEB99;" d="M270,260c0,13.712,8.954,30,20,30v-60C278.954,230,270,246.288,270,260z"/>
	<path id="XMLID_1245_" style="fill:#FFDE55;" d="M340,149.993v60c11.046,0,20-16.288,20-30S351.046,149.993,340,149.993z"/>
	<path id="XMLID_1248_" style="fill:#FFEB99;" d="M320,179.993c0,13.712,8.954,30,20,30v-60
		C328.954,149.993,320,166.281,320,179.993z"/>
	<path id="XMLID_1251_" style="fill:#FFDE55;" d="M290,90v60c11.046,0,20-16.288,20-30C310,106.288,301.046,90,290,90z"/>
	<path id="XMLID_1254_" style="fill:#FFEB99;" d="M270,120c0,13.712,8.954,30,20,30V90C278.954,90,270,106.288,270,120z"/>
	<path id="XMLID_1257_" style="fill:#FFEB99;" d="M190,100c0-13.712-8.954-30-20-30v60C181.046,130,190,113.712,190,100z"/>
	<path id="XMLID_1260_" style="fill:#FFFFFF;" d="M170,70c-11.046,0-20,16.288-20,30c0,13.712,8.954,30,20,30V70z"/>
	<path id="XMLID_1263_" style="fill:#FFEB99;" d="M190,210v60c11.046,0,20-16.288,20-30C210,226.288,201.046,210,190,210z"/>
	<path id="XMLID_1266_" style="fill:#FFFFFF;" d="M170,240c0,13.712,8.954,30,20,30v-60C178.954,210,170,226.288,170,240z"/>
	<path id="XMLID_1269_" style="fill:#FFEB99;" d="M120,149.993v60c11.003,0,20-16.288,20-30S131.003,149.993,120,149.993z"/>
	<path id="XMLID_1272_" style="fill:#FFFFFF;" d="M100,179.993c0,13.712,8.997,30,20,30v-60
		C108.997,149.993,100,166.281,100,179.993z"/>
</g>
<g>
</g>
<g>
</g>
<g>
</g>
<g>
</g>
<g>
</g>
<g>
</g>
<g>
</g>
<g>
</g>
<g>
</g>
<g>
</g>
<g>
</g>
<g>
</g>
<g>
</g>
<g>
</g>
<g>
</g>
</svg>
