<?xml version="1.0" encoding="iso-8859-1"?>
<!-- Generator: Adobe Illustrator 19.0.0, SVG Export Plug-In . SVG Version: 6.00 Build 0)  -->
<svg version="1.1" id="Capa_1" xmlns="http://www.w3.org/2000/svg" xmlns:xlink="http://www.w3.org/1999/xlink" x="0px" y="0px"
	 viewBox="0 0 460 460" style="enable-background:new 0 0 460 460;" xml:space="preserve">
<g id="XMLID_1154_">
	<path id="XMLID_1155_" style="fill:#00AA95;" d="M445.84,232.025c6.447-7.664,8.917-18.377,5.594-28.603
		c-3.323-10.226-11.618-17.442-21.339-19.852c3.763-9.281,2.802-20.234-3.518-28.932c-6.32-8.699-16.44-12.998-26.429-12.286
		c0.711-9.99-3.588-20.109-12.287-26.429s-19.651-7.281-28.932-3.518c-2.411-9.72-9.626-18.016-19.852-21.339
		c-10.226-3.323-20.94-0.852-28.604,5.594C305.178,88.16,295.752,82.5,285,82.5v205h145c16.569,0,30-13.431,30-30
		C460,246.748,454.34,237.322,445.84,232.025z"/>
	<path id="XMLID_1156_" style="fill:#00CCB3;" d="M259.525,96.66c-7.664-6.447-18.377-8.917-28.603-5.594
		c-10.226,3.323-17.442,11.618-19.852,21.339c-9.281-3.763-20.234-2.802-28.932,3.518s-12.997,16.44-12.286,26.429
		c-9.99-0.711-20.109,3.588-26.429,12.286c-1.199,1.651-2.204,3.384-3.021,5.17c7.884-2.661,16.827-2.058,24.599,2.43
		c9.395,5.424,14.745,15.163,14.994,25.268c10.105,0.25,19.844,5.599,25.268,14.994c5.424,9.395,5.188,20.504,0.351,29.38
		C214.241,237.149,220,246.651,220,257.5c0,16.569-13.431,30-30,30h95v-205C274.248,82.5,264.822,88.16,259.525,96.66z"/>
	<path id="XMLID_1157_" style="fill:#B39A7C;" d="M225,332.5c0-15.494,3.886-24.238,6.724-30.623
		c2.113-4.753,3.276-7.372,3.276-14.377h-40c0,7-1.164,9.249-3.276,14.002c-2.837,6.384-6.724,14.753-6.724,30.248
		s3.886,24.488,6.724,30.873C193.836,367.376,195,369.5,195,377.5h40c0-7.006-1.164-9.624-3.276-14.377
		C228.886,356.738,225,347.994,225,332.5z"/>
	<path id="XMLID_1158_" style="fill:#A78966;" d="M231.724,301.877C228.886,308.262,225,317.006,225,332.5
		s3.886,24.238,6.724,30.623c2.113,4.753,3.276,7.372,3.276,14.377h40c0-15.494-3.886-24.238-6.724-30.623
		c-2.112-4.753-3.276-7.372-3.276-14.377s1.164-9.624,3.276-14.377c2.838-6.384,6.724-15.128,6.724-30.623h-40
		C235,294.506,233.836,297.124,231.724,301.877z"/>
	<path id="XMLID_1159_" style="fill:#00CCB3;" d="M110,147.5c-10.849,0-20.351,5.759-25.62,14.386
		c-8.876-4.836-19.985-5.073-29.38,0.351S40.255,177.4,40.006,187.506c-10.105,0.25-19.844,5.599-25.268,14.994
		s-5.188,20.504-0.351,29.38C5.759,237.149,0,246.651,0,257.5c0,16.569,13.431,30,30,30h80V147.5z"/>
	<path id="XMLID_1160_" style="fill:#00AA95;" d="M220,257.5c0-10.849-5.759-20.351-14.386-25.62
		c4.836-8.876,5.073-19.985-0.351-29.38c-5.424-9.395-15.163-14.745-25.268-14.994c-0.25-10.105-5.599-19.844-14.994-25.268
		c-7.773-4.488-16.715-5.09-24.599-2.43c-1.646,0.555-3.248,1.243-4.781,2.078c-5.269-8.627-14.771-14.386-25.62-14.386v140h80
		C206.569,287.5,220,274.069,220,257.5z"/>
</g>
<g>
</g>
<g>
</g>
<g>
</g>
<g>
</g>
<g>
</g>
<g>
</g>
<g>
</g>
<g>
</g>
<g>
</g>
<g>
</g>
<g>
</g>
<g>
</g>
<g>
</g>
<g>
</g>
<g>
</g>
</svg>
