<?xml version="1.0" encoding="iso-8859-1"?>
<!-- Generator: Adobe Illustrator 19.0.0, SVG Export Plug-In . SVG Version: 6.00 Build 0)  -->
<svg version="1.1" id="Capa_1" xmlns="http://www.w3.org/2000/svg" xmlns:xlink="http://www.w3.org/1999/xlink" x="0px" y="0px"
	 viewBox="0 0 459 459" style="enable-background:new 0 0 459 459;" xml:space="preserve">
<g id="XMLID_1190_">
	<path id="XMLID_1191_" style="fill:#C0AB91;" d="M269,344.5h-20v-30h-40v100h40v-30h20c38.598,0,70-31.402,70-70h-40
		C299,331.042,285.542,344.5,269,344.5z"/>
	<path id="XMLID_1192_" style="fill:#D9CCBC;" d="M191.489,344.5c-17.307,0-32.489-14.019-32.489-30h-40
		c0,37.944,33.196,70,72.489,70H209v-40H191.489z"/>
	<path id="XMLID_1193_" style="fill:#FFA5B5;" d="M229,314.5v-270c-14.055,0-26.409,7.255-33.543,18.219
		c-10.173-8.223-24.164-11.306-37.531-6.962c-13.367,4.343-22.874,15.061-26.271,27.693c-12.216-4.677-26.475-3.285-37.846,4.976
		c-11.371,8.262-17.1,21.393-16.428,34.456c-13.063-0.673-26.194,5.057-34.456,16.428c-8.262,11.371-9.653,25.63-4.976,37.846
		c-12.632,3.397-23.349,12.904-27.693,26.271c-4.404,13.554-1.173,27.749,7.309,37.955C6.966,248.575,0,260.723,0,274.5
		c0,22.091,17.909,40,40,40H229z M109,234.5c-11.046,0-20-8.954-20-20s8.954-20,20-20s20,8.954,20,20S120.046,234.5,109,234.5z
		 M149,254.5c0-11.046,8.954-20,20-20s20,8.954,20,20s-8.954,20-20,20S149,265.546,149,254.5z"/>
	<path id="XMLID_1197_" style="fill:#FF728B;" d="M440.781,240.957c8.223-10.173,11.306-24.164,6.962-37.531
		c-4.343-13.367-15.061-22.874-27.693-26.271c4.677-12.216,3.285-26.475-4.976-37.846c-8.262-11.371-21.393-17.1-34.456-16.428
		c0.673-13.063-5.057-26.194-16.428-34.456c-11.371-8.261-25.63-9.653-37.846-4.976c-3.397-12.632-12.904-23.349-26.271-27.693
		c-13.367-4.343-27.358-1.26-37.531,6.962C255.409,51.755,243.055,44.5,229,44.5v270h190c22.091,0,40-17.909,40-40
		C459,260.445,451.744,248.091,440.781,240.957z M329,184.5c-11.046,0-20-8.954-20-20s8.954-20,20-20s20,8.954,20,20
		S340.046,184.5,329,184.5z"/>
	<circle id="XMLID_1200_" style="fill:#FF728B;" cx="169" cy="254.5" r="20"/>
	<circle id="XMLID_1201_" style="fill:#FFA5B5;" cx="329" cy="164.5" r="20"/>
	<circle id="XMLID_1202_" style="fill:#FF728B;" cx="109" cy="214.5" r="20"/>
</g>
<g>
</g>
<g>
</g>
<g>
</g>
<g>
</g>
<g>
</g>
<g>
</g>
<g>
</g>
<g>
</g>
<g>
</g>
<g>
</g>
<g>
</g>
<g>
</g>
<g>
</g>
<g>
</g>
<g>
</g>
</svg>
