<?xml version="1.0" encoding="iso-8859-1"?>
<!-- Generator: Adobe Illustrator 19.0.0, SVG Export Plug-In . SVG Version: 6.00 Build 0)  -->
<svg version="1.1" id="Capa_1" xmlns="http://www.w3.org/2000/svg" xmlns:xlink="http://www.w3.org/1999/xlink" x="0px" y="0px"
	 viewBox="0 0 460 460" style="enable-background:new 0 0 460 460;" xml:space="preserve">
<g id="XMLID_972_">
	<path id="XMLID_973_" style="fill:#A78966;" d="M210,348.728V460h40V348.728c-6.549,0.838-13.224,1.272-20,1.272
		S216.549,349.566,210,348.728z"/>
	<path id="XMLID_974_" style="fill:#FF7956;" d="M386,194.005c0-28.423-7.606-55.069-20.888-78.019
		c-13.774-0.014-27.643,1.815-41.244,5.55c-4.477-16.273-11.075-32.249-19.909-47.548C285.551,42.105,259.762,17.143,230,0v350
		c6.776,0,13.451-0.434,20-1.272C326.711,338.911,386,273.383,386,194.005z M290,290c-11.046,0-20-8.954-20-20s8.954-20,20-20
		s20,8.954,20,20S301.046,290,290,290z"/>
	<path id="XMLID_977_" style="fill:#FF9478;" d="M230,0c-29.762,17.143-55.551,42.106-73.959,73.989
		c-8.833,15.299-15.431,31.274-19.909,47.548c-13.601-3.735-27.47-5.564-41.244-5.55C81.606,138.937,74,165.582,74,194.005
		c0,79.377,59.289,144.906,136,154.723c6.549,0.838,13.224,1.272,20,1.272V0z M150,230c-11.046,0-20-8.954-20-20s8.954-20,20-20
		s20,8.954,20,20S161.046,230,150,230z M190,150c-11.046,0-20-8.954-20-20s8.954-20,20-20s20,8.954,20,20S201.046,150,190,150z"/>
	<circle id="XMLID_981_" style="fill:#FF7956;" cx="150" cy="210" r="20"/>
	<circle id="XMLID_982_" style="fill:#FF7956;" cx="190" cy="130" r="20"/>
	<circle id="XMLID_983_" style="fill:#FF9478;" cx="290" cy="270" r="20"/>
</g>
<g>
</g>
<g>
</g>
<g>
</g>
<g>
</g>
<g>
</g>
<g>
</g>
<g>
</g>
<g>
</g>
<g>
</g>
<g>
</g>
<g>
</g>
<g>
</g>
<g>
</g>
<g>
</g>
<g>
</g>
</svg>
